<svg xmlns="http://www.w3.org/2000/svg" viewBox="0 0 64 64" fill="none">
  <g stroke="#d9ad68" stroke-width="1.55" stroke-linecap="round" stroke-linejoin="round">
    <circle cx="32" cy="32" r="29"/>
    <rect x="13" y="18" width="8" height="29" rx="1"/>
    <rect x="23" y="18" width="8" height="29" rx="1"/>
    <rect x="33" y="18" width="8" height="29" rx="1"/>
    <rect x="43" y="18" width="8" height="29" rx="1"/>
    <path d="M13 31h8M23 31h8M33 31h8M43 31h8"/>
    <path d="M16 23h2M26 23h2M36 23h2M46 23h2M16 37h2M26 37h2M36 37h2M46 37h2" stroke-width="2.2"/>
    <path d="M16 42h2M26 42h2M36 42h2M46 42h2" opacity=".6"/>
  </g>
</svg>
