<svg xmlns="http://www.w3.org/2000/svg" viewBox="0 0 64 64" fill="none">
  <g stroke="#d9ad68" stroke-width="1.7" stroke-linecap="round" stroke-linejoin="round">
    <circle cx="32" cy="32" r="29"/>
    <path d="M15 20.5c6.8 0 12.4 1.7 17 5.2 4.6-3.5 10.2-5.2 17-5.2v27c-6.8 0-12.4 1.7-17 5.2-4.6-3.5-10.2-5.2-17-5.2z"/>
    <path d="M32 25.7v27M20 29c3.2.2 6 1.1 8.4 2.6M20 35c3.2.2 6 1.1 8.4 2.6M44 29c-3.2.2-6 1.1-8.4 2.6M44 35c-3.2.2-6 1.1-8.4 2.6"/>
    <path d="M32 14l1.3 3.3 3.4 1.3-3.4 1.3-1.3 3.4-1.3-3.4-3.4-1.3 3.4-1.3z"/>
  </g>
</svg>
