<svg xmlns="http://www.w3.org/2000/svg" viewBox="0 0 64 64" fill="none">
  <g stroke="#d9ad68" stroke-width="1.75" stroke-linecap="round" stroke-linejoin="round">
    <circle cx="32" cy="32" r="29"/>
    <path d="M23 48v-4.2c0-4.8 2.2-7.9 6.2-9.7-3.4-1.9-5.4-5.4-5.4-9.4 0-6 4.4-10.7 10.4-10.7 5.4 0 9.5 3.6 10.2 8.8l3.4 5.1-3.6 1.8v4c0 2.6-1.6 4.2-4.2 4.2h-3.3V48"/>
    <path d="M30 25.8c1.2-3.5 6.2-3.6 7.6-.4 1.2 2.8-1.1 5.4-3.8 7.2-2.9-1.8-5-4.1-3.8-6.8z"/>
    <path d="M28.7 20.8c1.5-1.6 3.4-2.5 5.6-2.5M28.3 30.7c1.2 1.8 3.1 3 5.3 3.4"/>
  </g>
</svg>
