<svg xmlns="http://www.w3.org/2000/svg" viewBox="0 0 64 64" fill="none">
  <g stroke="#d9ad68" stroke-width="1.45" stroke-linecap="round" stroke-linejoin="round">
    <circle cx="32" cy="32" r="29"/>
    <circle cx="32" cy="32" r="4.5"/>
    <path d="M32 27.5V17M35.7 29.4l7-8.1M36.3 32l10.1-3.3M36 34l10.4 3.3M34.8 35.7l6.5 8.9M32 36.5V47M29.2 35.7l-6.5 8.9M28 34l-10.4 3.3M27.7 32l-10.1-3.3M28.3 29.4l-7-8.1" opacity=".75"/>
    <circle cx="32" cy="14" r="2"/>
    <circle cx="42.6" cy="17.4" r="2"/>
    <circle cx="49.1" cy="26.4" r="2"/>
    <circle cx="49.1" cy="37.6" r="2"/>
    <circle cx="42.6" cy="46.6" r="2"/>
    <circle cx="32" cy="50" r="2"/>
    <circle cx="21.4" cy="46.6" r="2"/>
    <circle cx="14.9" cy="37.6" r="2"/>
    <circle cx="14.9" cy="26.4" r="2"/>
    <circle cx="21.4" cy="17.4" r="2"/>
  </g>
</svg>
